<?xml version="1.0" encoding="UTF-8"?>
<svg id="Capa_1" xmlns="http://www.w3.org/2000/svg" version="1.1" viewBox="0 0 192 192">
  <!-- Generator: Adobe Illustrator 30.3.0, SVG Export Plug-In . SVG Version: 2.1.3 Build 182)  -->
  <defs>
    <style>
      .st0 {
        fill: #0f2b41;
      }

      .st1 {
        fill: #ceb37c;
      }

      .st2 {
        fill: #fff;
      }
    </style>
  </defs>
  <rect class="st0" width="192" height="192" rx="21.4" ry="21.4"/>
  <g>
    <path class="st2" d="M64.5,48.5c-4-.8-7.7-1.5-11-2.2-3.6-.7-6.5-1.6-8.7-2.8-4.1-2-4.7-5.1-4.7-6.8s.7-3.6,1.9-5.1c1.2-1.4,3-2.5,5.5-3.2,2.2-.7,5-1,8.6-1s9.5.7,14.4,2c3.9,1.1,8,2.5,12.1,4.4l8-19.2c-4.4-2.2-9.3-3.9-14.7-5.1-6.4-1.4-13-2.1-19.5-2.1-9.9,0-18.2,1.5-24.8,4.4-6.4,2.8-11.3,6.6-14.4,11.3-3.2,4.7-4.7,9.7-4.7,15.4s.9,8.9,2.6,12c1.8,3.2,4.1,5.8,7,7.7,3.1,2.1,6.5,3.7,10.2,5,3.9,1.3,7.7,2.4,11.5,3.1,3.9.8,7.6,1.6,10.9,2.3,3.6.8,6.5,1.7,8.7,2.9,4,2.1,4.6,5.3,4.6,7s-.8,3.8-2.2,5.1c-1.3,1.2-3.1,2.1-5.5,2.6-2.1.5-4.9.7-8.4.7-5.8,0-11.9-.9-18-2.6-4.9-1.4-9.6-3.2-13.8-5.4l-8.5,19.3c4.4,2.3,9.9,4.3,16.3,5.9,7.6,1.9,15.6,2.8,23.8,2.8s18.3-1.5,24.8-4.4c6.4-2.9,11.2-6.7,14.4-11.3.3-.4.6-.9.8-1.3-2.7-3.4-5-7.2-6.8-11.3-2.8-6.4-4.2-13.5-4.2-21.3s0-2.4,0-3.5c-1.6-.8-3.4-1.5-5.1-2.1-3.8-1.3-7.6-2.3-11.5-3.1h.3Z"/>
    <path class="st2" d="M154.7,80v-22.6h23.5v38c-5.5,3.5-11.9,6.3-18.8,8.2-7.6,2.1-15,3.2-22.1,3.2s-15-1.2-21.5-3.6-12.1-5.8-16.9-10.3c-4.7-4.4-8.4-9.7-11-15.7s-3.9-12.8-3.9-20.1,1.3-14.1,3.9-20.1,6.3-11.3,11.1-15.7c4.8-4.4,10.5-7.9,17.1-10.3s14-3.6,21.9-3.6,18.1,1.6,25.5,4.8c6.4,2.8,11.9,6.6,16.3,11.4l-17.3,15.3c-2.8-2.9-5.9-5.1-9.2-6.8-4.1-2.1-8.7-3.1-13.7-3.1s-7.9.6-11.2,1.9c-3.4,1.3-6.4,3.2-8.8,5.8-2.4,2.5-4.2,5.5-5.5,8.9s-1.9,7.3-1.9,11.6.6,7.9,1.9,11.3c1.3,3.5,3.2,6.5,5.5,9,2.4,2.5,5.3,4.5,8.6,5.8s7,2,11,2,8.3-.7,12.2-2.1c.4,0,.8-.3,1.3-.5,1.1-.5,1.9-1.6,1.9-2.8h.1Z"/>
    <path class="st2" d="M139.3,85.4c-4,0-7.7-.7-11-2-3.3-1.4-6.2-3.3-8.6-5.8s-4.3-5.5-5.5-9c-1.3-3.4-1.9-7.3-1.9-11.3s.6-8.2,1.9-11.6,3.2-6.4,5.5-8.9c2.4-2.5,5.4-4.5,8.8-5.8s7.1-1.9,11.2-1.9,9.6,1.1,13.7,3.1c3.2,1.6,6.3,3.9,9.2,6.8l17.3-15.3c-4.5-4.8-9.9-8.6-16.3-11.4-7.4-3.2-16-4.8-25.5-4.8s-15.3,1.2-21.9,3.6-12.3,5.8-17.1,10.3c-4.8,4.4-8.5,9.7-11.1,15.7s-3.9,12.8-3.9,20.1,1.3,14.1,3.9,20.1,6.3,11.3,11,15.7c4.7,4.4,10.4,7.9,16.9,10.3s13.7,3.6,21.5,3.6,14.5-1.1,22.1-3.2c7-2,13.3-4.7,18.8-8.2v-38h-23.5v22.6c0,1.2-.7,2.3-1.9,2.8-.4.2-.9.3-1.3.5-4,1.4-8.1,2.1-12.2,2.1h-.1Z"/>
  </g>
  <path class="st1" d="M79.3,154.6c-1.6-.8-3.2-1.6-4.7-2.6-2.5-1.7-4.6-3.9-6.2-6.7s-2.3-6.2-2.3-10.4,1.3-9.2,4-13.1c2.2-3.2,5.2-5.9,9.1-8v-1.1h-21.5v39.8c0,6.5-1.2,11-3.7,13.9-2.5,3-6,4.5-10.3,4.5s-7.7-1.5-10.2-4.4-3.7-7.5-3.7-14v-39.8H7.9v40.6c0,11,3.1,19.5,9.3,25.5s15.1,9,26.4,9,16.1-1.9,21.9-5.5c-.2-.1-.4-.2-.6-.3l8.4-19.1c1.4.8,2.9,1.6,4.5,2.3,0,0,1.5-4.6,1.5-10.5h0Z"/>
  <path class="st1" d="M102.2,110.9c-7.6,0-14.1,1.1-19.2,3.4-5,2.2-8.7,5.1-11.2,8.7-2.4,3.6-3.7,7.6-3.7,11.9s.7,6.9,2.1,9.3c1.4,2.5,3.2,4.5,5.5,6,2.4,1.6,5,2.9,7.9,3.9,3,1,6,1.8,8.9,2.4,3,.6,5.8,1.2,8.4,1.8,2.7.6,5,1.3,6.7,2.2,2.9,1.5,3.5,3.6,3.5,5.2s-.6,2.8-1.7,3.8c-1,.9-2.3,1.5-4.1,2-1.6.4-3.7.6-6.4.6-4.5,0-9.1-.7-13.8-2-3.9-1.1-7.5-2.5-10.8-4.2l-6.7,15.2c3.5,1.8,7.7,3.4,12.8,4.6,5.9,1.4,12,2.2,18.3,2.2s14.2-1.1,19.2-3.4c.5-.2,1-.5,1.5-.7-1.1-.5-2.2-1.1-3.2-1.7l8.4-19.1c2.4,1.4,5.1,2.6,7.9,3.7.1-.9.2-1.8.2-2.8,0-3.7-.7-6.7-2-9.1-1.7-.8-3.3-1.6-4.7-2.6-2.3-1.6-4.2-3.6-5.7-6.1-.9-.4-1.9-.8-2.9-1.2-2.9-1-5.9-1.8-8.9-2.4-3.1-.6-5.9-1.1-8.4-1.7-2.7-.5-5-1.3-6.7-2.1-2.9-1.4-3.5-3.5-3.5-5s.5-2.7,1.4-3.8,2.3-1.9,4.2-2.4c1.7-.5,3.8-.8,6.6-.8s7.3.5,11,1.5c1.6.4,3.3,1,5,1.6.6-2.8,1.8-5.5,3.5-8,1.5-2.2,3.5-4.2,5.9-6-3.1-1.4-6.5-2.6-10.1-3.3-4.9-1.1-10-1.6-15.1-1.6h-.1Z"/>
  <path class="st1" d="M180.4,175.6c-2.5,3.6-6.2,6.6-11.2,8.8-5,2.3-11.5,3.4-19.2,3.4s-12.5-.7-18.3-2.2c-5-1.2-9.3-2.8-12.8-4.6l6.7-15.2c3.3,1.7,6.9,3.1,10.8,4.2,4.7,1.3,9.4,2,13.8,2s4.8-.2,6.4-.6c1.8-.4,3.2-1.1,4.1-2,1.1-1,1.7-2.3,1.7-3.8s-.6-3.7-3.5-5.2c-1.7-.9-3.9-1.6-6.7-2.2-2.6-.6-5.3-1.1-8.4-1.8-2.9-.6-5.9-1.4-8.9-2.4-2.9-1-5.5-2.3-7.9-3.9-2.3-1.5-4.1-3.5-5.5-6-1.4-2.4-2.1-5.6-2.1-9.3s1.2-8.4,3.7-11.9c2.5-3.6,6.2-6.5,11.2-8.7,5.1-2.2,11.5-3.4,19.2-3.4s10.1.5,15.1,1.6c4.2.9,8.1,2.3,11.5,4l-6.3,15.1c-3.3-1.5-6.4-2.7-9.5-3.5-3.8-1-7.5-1.5-11-1.5s-4.9.2-6.6.8c-1.9.6-3.3,1.4-4.2,2.4-1,1.1-1.4,2.4-1.4,3.8s.6,3.6,3.5,5c1.7.9,4,1.6,6.7,2.1,2.6.5,5.4,1.1,8.4,1.7,3,.6,5.9,1.4,8.9,2.4,2.8,1,5.5,2.3,7.9,3.9,2.3,1.5,4.1,3.5,5.5,5.9s2.1,5.5,2.1,9.2-1.2,8.3-3.7,11.8h0Z"/>
  <path class="st1" d="M182,154.6c-1.4-2.4-3.2-4.4-5.5-5.9-2.4-1.6-5-2.9-7.9-3.9s-5.9-1.8-8.9-2.4c-3.1-.6-5.9-1.1-8.4-1.7-2.7-.5-5-1.3-6.7-2.1-2.9-1.4-3.5-3.5-3.5-5s.5-2.7,1.4-3.8,2.3-1.9,4.2-2.4c1.7-.5,3.8-.8,6.6-.8s7.3.5,11,1.5c3.1.8,6.3,2,9.5,3.5l6.3-15.1c-3.5-1.7-7.3-3.1-11.5-4-4.9-1.1-10-1.6-15.1-1.6-7.6,0-14.1,1.1-19.2,3.4-5,2.2-8.7,5.1-11.2,8.7-2.4,3.6-3.7,7.6-3.7,11.9s.7,6.9,2.1,9.3c1.4,2.5,3.2,4.5,5.5,6,2.4,1.6,5,2.9,7.9,3.9,3,1,6,1.8,8.9,2.4,3,.6,5.8,1.2,8.4,1.8,2.8.6,4.9,1.3,6.7,2.2,2.9,1.5,3.5,3.6,3.5,5.2s-.6,2.8-1.7,3.8c-.9.9-2.3,1.5-4.1,2-1.6.4-3.7.6-6.4.6-4.5,0-9.1-.7-13.8-2-3.9-1.1-7.5-2.5-10.8-4.2l-6.7,15.2c3.5,1.8,7.7,3.4,12.8,4.6,5.9,1.4,12,2.2,18.3,2.2s14.2-1.1,19.2-3.4c4.9-2.2,8.7-5.2,11.2-8.8,2.4-3.6,3.7-7.6,3.7-11.8s-.7-6.8-2.1-9.2h0Z"/>
</svg>